<svg width="250" height="60" viewBox="0 0 250 60" fill="none" xmlns="http://www.w3.org/2000/svg">
<rect width="250" height="60" fill="#458DD3"/>
<path d="M69.085 32.064C69.085 31.4453 68.9943 30.8747 68.813 30.352C68.6423 29.8293 68.3863 29.376 68.045 28.992C67.7037 28.608 67.2877 28.3093 66.797 28.096C66.3063 27.8827 65.741 27.776 65.101 27.776C63.789 27.776 62.7543 28.1547 61.997 28.912C61.2503 29.6693 60.7757 30.72 60.573 32.064H69.085ZM71.661 39.68C71.277 40.128 70.8343 40.5173 70.333 40.848C69.8317 41.168 69.2983 41.4293 68.733 41.632C68.1677 41.8347 67.581 41.984 66.973 42.08C66.3757 42.176 65.7837 42.224 65.197 42.224C64.077 42.224 63.037 42.0373 62.077 41.664C61.1277 41.28 60.301 40.7253 59.597 40C58.9037 39.264 58.3597 38.3573 57.965 37.28C57.581 36.192 57.389 34.944 57.389 33.536C57.389 32.4053 57.565 31.3547 57.917 30.384C58.269 29.4027 58.7703 28.5493 59.421 27.824C60.0823 27.0987 60.8877 26.528 61.837 26.112C62.7863 25.696 63.853 25.488 65.037 25.488C66.029 25.488 66.941 25.6533 67.773 25.984C68.6157 26.304 69.341 26.7733 69.949 27.392C70.557 28.0107 71.0317 28.7733 71.373 29.68C71.725 30.5867 71.901 31.6213 71.901 32.784C71.901 33.264 71.8477 33.5893 71.741 33.76C71.6343 33.92 71.437 34 71.149 34H60.493C60.525 34.9707 60.6637 35.8187 60.909 36.544C61.1543 37.2587 61.4903 37.856 61.917 38.336C62.3543 38.816 62.8717 39.1733 63.469 39.408C64.0663 39.6427 64.733 39.76 65.469 39.76C66.1623 39.76 66.7597 39.68 67.261 39.52C67.773 39.36 68.2103 39.1893 68.573 39.008C68.9463 38.816 69.2557 38.64 69.501 38.48C69.757 38.32 69.981 38.24 70.173 38.24C70.429 38.24 70.6263 38.336 70.765 38.528L71.661 39.68ZM80.2175 42.256C78.9055 42.256 77.8922 41.888 77.1775 41.152C76.4735 40.416 76.1215 39.3653 76.1215 38V28.272H74.2335C74.0522 28.272 73.8975 28.2187 73.7695 28.112C73.6522 27.9947 73.5935 27.824 73.5935 27.6V26.336L76.2335 25.968L76.9375 21.12C76.9802 20.9387 77.0602 20.8 77.1775 20.704C77.3055 20.5973 77.4655 20.544 77.6575 20.544H79.2415V26H83.8495V28.272H79.2415V37.792C79.2415 38.432 79.3962 38.912 79.7055 39.232C80.0255 39.5413 80.4308 39.696 80.9215 39.696C81.2095 39.696 81.4548 39.6587 81.6575 39.584C81.8708 39.5093 82.0522 39.4293 82.2015 39.344C82.3508 39.248 82.4788 39.1627 82.5855 39.088C82.6922 39.0133 82.7882 38.976 82.8735 38.976C82.9802 38.976 83.0602 39.0027 83.1135 39.056C83.1775 39.0987 83.2415 39.1733 83.3055 39.28L84.2335 40.784C83.7215 41.2533 83.1135 41.616 82.4095 41.872C81.7055 42.128 80.9748 42.256 80.2175 42.256ZM89.8433 27.808C90.5259 27.1147 91.2779 26.5547 92.0993 26.128C92.9313 25.7013 93.8859 25.488 94.9633 25.488C95.8593 25.488 96.6433 25.6373 97.3153 25.936C97.9979 26.2347 98.5686 26.656 99.0273 27.2C99.4859 27.7333 99.8326 28.3787 100.067 29.136C100.302 29.8933 100.419 30.7307 100.419 31.648V42H97.2833V31.648C97.2833 30.4853 97.0166 29.584 96.4833 28.944C95.9499 28.2933 95.1339 27.968 94.0353 27.968C93.2353 27.968 92.4833 28.16 91.7793 28.544C91.0859 28.9173 90.4406 29.4293 89.8433 30.08V42H86.7233V18.384H89.8433V27.808ZM115.398 32.064C115.398 31.4453 115.307 30.8747 115.126 30.352C114.955 29.8293 114.699 29.376 114.358 28.992C114.016 28.608 113.6 28.3093 113.11 28.096C112.619 27.8827 112.054 27.776 111.414 27.776C110.102 27.776 109.067 28.1547 108.31 28.912C107.563 29.6693 107.088 30.72 106.886 32.064H115.398ZM117.974 39.68C117.59 40.128 117.147 40.5173 116.646 40.848C116.144 41.168 115.611 41.4293 115.046 41.632C114.48 41.8347 113.894 41.984 113.286 42.08C112.688 42.176 112.096 42.224 111.51 42.224C110.39 42.224 109.35 42.0373 108.39 41.664C107.44 41.28 106.614 40.7253 105.91 40C105.216 39.264 104.672 38.3573 104.278 37.28C103.894 36.192 103.702 34.944 103.702 33.536C103.702 32.4053 103.878 31.3547 104.23 30.384C104.582 29.4027 105.083 28.5493 105.734 27.824C106.395 27.0987 107.2 26.528 108.15 26.112C109.099 25.696 110.166 25.488 111.35 25.488C112.342 25.488 113.254 25.6533 114.086 25.984C114.928 26.304 115.654 26.7733 116.262 27.392C116.87 28.0107 117.344 28.7733 117.686 29.68C118.038 30.5867 118.214 31.6213 118.214 32.784C118.214 33.264 118.16 33.5893 118.054 33.76C117.947 33.92 117.75 34 117.462 34H106.806C106.838 34.9707 106.976 35.8187 107.222 36.544C107.467 37.2587 107.803 37.856 108.23 38.336C108.667 38.816 109.184 39.1733 109.782 39.408C110.379 39.6427 111.046 39.76 111.782 39.76C112.475 39.76 113.072 39.68 113.574 39.52C114.086 39.36 114.523 39.1893 114.886 39.008C115.259 38.816 115.568 38.64 115.814 38.48C116.07 38.32 116.294 38.24 116.486 38.24C116.742 38.24 116.939 38.336 117.078 38.528L117.974 39.68ZM124.511 28.864C125.034 27.7973 125.663 26.96 126.399 26.352C127.135 25.744 128.02 25.44 129.055 25.44C129.407 25.44 129.738 25.4827 130.047 25.568C130.367 25.6427 130.644 25.76 130.879 25.92L130.671 28.272C130.596 28.56 130.42 28.704 130.143 28.704C129.994 28.704 129.77 28.6773 129.471 28.624C129.172 28.56 128.852 28.528 128.511 28.528C128.01 28.528 127.567 28.6027 127.183 28.752C126.799 28.8907 126.452 29.104 126.143 29.392C125.844 29.6693 125.578 30.016 125.343 30.432C125.108 30.8373 124.89 31.3013 124.687 31.824V42H121.567V25.744H123.359C123.7 25.744 123.93 25.808 124.047 25.936C124.175 26.0533 124.266 26.2667 124.319 26.576L124.511 28.864ZM136.406 38C136.918 38.672 137.467 39.1413 138.054 39.408C138.651 39.6747 139.318 39.808 140.054 39.808C141.483 39.808 142.587 39.296 143.366 38.272C144.155 37.2373 144.55 35.7333 144.55 33.76C144.55 32.7253 144.459 31.8453 144.278 31.12C144.107 30.384 143.851 29.7867 143.51 29.328C143.179 28.8587 142.768 28.5173 142.278 28.304C141.787 28.08 141.232 27.968 140.614 27.968C139.707 27.968 138.918 28.1707 138.246 28.576C137.584 28.9813 136.971 29.5573 136.406 30.304V38ZM136.246 28.176C136.587 27.7707 136.95 27.4027 137.334 27.072C137.728 26.7307 138.15 26.4427 138.598 26.208C139.046 25.9627 139.52 25.776 140.022 25.648C140.534 25.5093 141.078 25.44 141.654 25.44C142.582 25.44 143.419 25.6213 144.166 25.984C144.923 26.3467 145.568 26.88 146.102 27.584C146.635 28.288 147.046 29.1573 147.334 30.192C147.632 31.2267 147.782 32.416 147.782 33.76C147.782 34.9653 147.616 36.0853 147.286 37.12C146.966 38.144 146.502 39.0347 145.894 39.792C145.296 40.5493 144.56 41.1467 143.686 41.584C142.822 42.0107 141.846 42.224 140.758 42.224C139.787 42.224 138.955 42.064 138.262 41.744C137.568 41.424 136.95 40.976 136.406 40.4V47.456H133.286V25.744H135.158C135.595 25.744 135.867 25.952 135.974 26.368L136.246 28.176ZM160.022 34.784C158.752 34.8267 157.675 34.928 156.79 35.088C155.904 35.2373 155.184 35.44 154.63 35.696C154.075 35.952 153.675 36.256 153.43 36.608C153.184 36.9493 153.062 37.3333 153.062 37.76C153.062 38.1653 153.126 38.5173 153.254 38.816C153.392 39.104 153.574 39.344 153.798 39.536C154.032 39.7173 154.304 39.8507 154.614 39.936C154.923 40.0213 155.259 40.064 155.622 40.064C156.102 40.064 156.539 40.016 156.934 39.92C157.339 39.824 157.718 39.6907 158.07 39.52C158.422 39.3387 158.758 39.12 159.078 38.864C159.398 38.608 159.712 38.3147 160.022 37.984V34.784ZM150.87 28.016C151.776 27.152 152.758 26.5067 153.814 26.08C154.88 25.6533 156.048 25.44 157.318 25.44C158.246 25.44 159.067 25.5947 159.782 25.904C160.496 26.2027 161.099 26.624 161.59 27.168C162.08 27.712 162.448 28.3627 162.694 29.12C162.95 29.8773 163.078 30.7147 163.078 31.632V42H161.686C161.376 42 161.142 41.952 160.982 41.856C160.822 41.7493 160.694 41.5573 160.598 41.28L160.262 39.856C159.846 40.24 159.435 40.5813 159.03 40.88C158.624 41.168 158.198 41.4187 157.75 41.632C157.312 41.8347 156.843 41.9893 156.342 42.096C155.84 42.2027 155.286 42.256 154.678 42.256C154.038 42.256 153.435 42.1707 152.87 42C152.315 41.8187 151.83 41.5467 151.414 41.184C150.998 40.8213 150.667 40.368 150.422 39.824C150.187 39.28 150.07 38.6453 150.07 37.92C150.07 37.28 150.24 36.6667 150.582 36.08C150.934 35.4827 151.499 34.9493 152.278 34.48C153.067 34.0107 154.091 33.6267 155.35 33.328C156.619 33.0293 158.176 32.8587 160.022 32.816V31.632C160.022 30.4053 159.76 29.488 159.238 28.88C158.715 28.272 157.947 27.968 156.934 27.968C156.251 27.968 155.675 28.0533 155.206 28.224C154.747 28.3947 154.347 28.5867 154.006 28.8C153.675 29.0027 153.382 29.1893 153.126 29.36C152.88 29.5307 152.624 29.616 152.358 29.616C152.144 29.616 151.958 29.5573 151.798 29.44C151.648 29.3227 151.526 29.184 151.43 29.024L150.87 28.016ZM176.839 28.544C176.753 28.6827 176.663 28.784 176.567 28.848C176.471 28.9013 176.348 28.928 176.199 28.928C176.028 28.928 175.836 28.8693 175.623 28.752C175.42 28.6347 175.169 28.5067 174.871 28.368C174.583 28.2293 174.241 28.1013 173.847 27.984C173.452 27.8667 172.983 27.808 172.439 27.808C171.991 27.808 171.58 27.8667 171.207 27.984C170.844 28.0907 170.535 28.2453 170.279 28.448C170.023 28.64 169.825 28.8747 169.687 29.152C169.548 29.4187 169.479 29.7067 169.479 30.016C169.479 30.4213 169.596 30.7573 169.831 31.024C170.076 31.2907 170.391 31.52 170.775 31.712C171.169 31.904 171.612 32.08 172.103 32.24C172.604 32.3893 173.111 32.5493 173.623 32.72C174.145 32.8907 174.652 33.088 175.143 33.312C175.644 33.5253 176.087 33.7973 176.471 34.128C176.865 34.448 177.18 34.8373 177.415 35.296C177.66 35.7547 177.783 36.3147 177.783 36.976C177.783 37.7333 177.644 38.4373 177.367 39.088C177.1 39.728 176.7 40.2827 176.167 40.752C175.644 41.2213 174.993 41.5893 174.215 41.856C173.436 42.1227 172.545 42.256 171.543 42.256C170.423 42.256 169.388 42.0693 168.439 41.696C167.489 41.3227 166.695 40.848 166.055 40.272L166.791 39.072C166.876 38.9227 166.983 38.8107 167.111 38.736C167.239 38.6507 167.409 38.608 167.623 38.608C167.825 38.608 168.033 38.6827 168.247 38.832C168.46 38.9813 168.716 39.1467 169.015 39.328C169.313 39.4987 169.676 39.6587 170.103 39.808C170.529 39.9467 171.063 40.016 171.703 40.016C172.236 40.016 172.7 39.952 173.095 39.824C173.489 39.6853 173.815 39.504 174.071 39.28C174.337 39.0453 174.535 38.7787 174.663 38.48C174.791 38.1813 174.855 37.8667 174.855 37.536C174.855 37.1093 174.732 36.7573 174.487 36.48C174.252 36.192 173.937 35.9467 173.543 35.744C173.159 35.5413 172.716 35.3653 172.215 35.216C171.713 35.0667 171.201 34.9067 170.679 34.736C170.156 34.5653 169.644 34.368 169.143 34.144C168.641 33.92 168.193 33.6373 167.799 33.296C167.415 32.9547 167.1 32.5387 166.855 32.048C166.62 31.5573 166.503 30.96 166.503 30.256C166.503 29.6267 166.631 29.024 166.887 28.448C167.153 27.872 167.532 27.3653 168.023 26.928C168.524 26.4907 169.137 26.144 169.863 25.888C170.599 25.6213 171.436 25.488 172.375 25.488C173.452 25.488 174.423 25.6587 175.287 26C176.161 26.3413 176.908 26.8107 177.527 27.408L176.839 28.544ZM190.745 28.544C190.659 28.6827 190.569 28.784 190.473 28.848C190.377 28.9013 190.254 28.928 190.105 28.928C189.934 28.928 189.742 28.8693 189.529 28.752C189.326 28.6347 189.075 28.5067 188.777 28.368C188.489 28.2293 188.147 28.1013 187.753 27.984C187.358 27.8667 186.889 27.808 186.345 27.808C185.897 27.808 185.486 27.8667 185.113 27.984C184.75 28.0907 184.441 28.2453 184.185 28.448C183.929 28.64 183.731 28.8747 183.593 29.152C183.454 29.4187 183.385 29.7067 183.385 30.016C183.385 30.4213 183.502 30.7573 183.737 31.024C183.982 31.2907 184.297 31.52 184.681 31.712C185.075 31.904 185.518 32.08 186.009 32.24C186.51 32.3893 187.017 32.5493 187.529 32.72C188.051 32.8907 188.558 33.088 189.049 33.312C189.55 33.5253 189.993 33.7973 190.377 34.128C190.771 34.448 191.086 34.8373 191.321 35.296C191.566 35.7547 191.689 36.3147 191.689 36.976C191.689 37.7333 191.55 38.4373 191.273 39.088C191.006 39.728 190.606 40.2827 190.073 40.752C189.55 41.2213 188.899 41.5893 188.121 41.856C187.342 42.1227 186.451 42.256 185.449 42.256C184.329 42.256 183.294 42.0693 182.345 41.696C181.395 41.3227 180.601 40.848 179.961 40.272L180.697 39.072C180.782 38.9227 180.889 38.8107 181.017 38.736C181.145 38.6507 181.315 38.608 181.529 38.608C181.731 38.608 181.939 38.6827 182.153 38.832C182.366 38.9813 182.622 39.1467 182.921 39.328C183.219 39.4987 183.582 39.6587 184.009 39.808C184.435 39.9467 184.969 40.016 185.609 40.016C186.142 40.016 186.606 39.952 187.001 39.824C187.395 39.6853 187.721 39.504 187.977 39.28C188.243 39.0453 188.441 38.7787 188.569 38.48C188.697 38.1813 188.761 37.8667 188.761 37.536C188.761 37.1093 188.638 36.7573 188.393 36.48C188.158 36.192 187.843 35.9467 187.449 35.744C187.065 35.5413 186.622 35.3653 186.121 35.216C185.619 35.0667 185.107 34.9067 184.585 34.736C184.062 34.5653 183.55 34.368 183.049 34.144C182.547 33.92 182.099 33.6373 181.705 33.296C181.321 32.9547 181.006 32.5387 180.761 32.048C180.526 31.5573 180.409 30.96 180.409 30.256C180.409 29.6267 180.537 29.024 180.793 28.448C181.059 27.872 181.438 27.3653 181.929 26.928C182.43 26.4907 183.043 26.144 183.769 25.888C184.505 25.6213 185.342 25.488 186.281 25.488C187.358 25.488 188.329 25.6587 189.193 26C190.067 26.3413 190.814 26.8107 191.433 27.408L190.745 28.544Z" fill="#0D0D0D"/>
</svg>
