<?xml version="1.0" standalone="no"?>
<!DOCTYPE svg PUBLIC "-//W3C//DTD SVG 20010904//EN"
 "http://www.w3.org/TR/2001/REC-SVG-20010904/DTD/svg10.dtd">
<svg version="1.0" xmlns="http://www.w3.org/2000/svg"
 width="260.000000pt" height="260.000000pt" viewBox="0 0 260.000000 260.000000"
 preserveAspectRatio="xMidYMid meet">
<metadata>
Created by potrace 1.11, written by Peter Selinger 2001-2013
</metadata>
<g transform="translate(0.000000,260.000000) scale(0.100000,-0.100000)"
fill="#000000" stroke="none">
<path d="M0 1300 l0 -1300 650 0 650 0 -1 673 c0 369 -3 666 -6 660 -2 -7 -18
-13 -33 -13 -45 0 -60 -31 -60 -122 0 -71 -2 -78 -20 -78 -19 0 -20 7 -20 120
0 113 1 120 20 120 11 0 20 -7 20 -15 0 -13 6 -11 29 6 18 13 38 20 50 16 l21
-5 0 619 0 619 -650 0 -650 0 0 -1300z m680 105 c0 -59 9 -80 24 -56 10 16 59
22 86 11 39 -16 50 -49 50 -150 0 -83 -1 -90 -20 -90 -18 0 -20 7 -20 79 0
102 -10 131 -48 131 -15 0 -38 -7 -50 -16 -20 -14 -22 -23 -22 -105 0 -82 -1
-89 -20 -89 -19 0 -20 7 -20 175 0 168 1 175 20 175 18 0 20 -7 20 -65z m-160
-5 c0 -39 1 -40 35 -40 46 0 49 -27 3 -32 l-33 -3 -3 -73 c-3 -82 7 -105 43
-96 26 7 44 -14 24 -27 -8 -5 -31 -9 -51 -9 -50 0 -58 18 -58 124 0 79 -2 86
-20 86 -26 0 -26 20 0 27 14 4 22 17 26 44 9 53 34 53 34 -1z m-153 -50 c31
-18 60 -81 47 -102 -3 -4 -43 -8 -90 -8 -52 0 -84 -4 -84 -10 0 -6 7 -24 15
-40 19 -36 56 -47 103 -30 22 8 37 9 44 2 17 -17 -33 -42 -84 -42 -68 0 -109
37 -115 106 -6 63 16 110 60 129 44 19 67 18 104 -5z m704 -6 c21 -19 43 -79
34 -94 -3 -5 -44 -10 -90 -10 l-84 0 9 -31 c15 -53 64 -74 111 -48 12 6 28 8
37 4 15 -6 14 -9 -7 -26 -16 -13 -39 -19 -73 -19 -41 0 -54 5 -78 28 -59 59
-48 167 20 204 40 22 92 18 121 -8z"/>
<path d="M266 1314 c-33 -32 -20 -44 49 -44 67 0 73 7 42 48 -13 17 -73 15
-91 -4z"/>
<path d="M957 1312 c-31 -34 -21 -42 48 -42 36 0 65 3 65 8 0 4 -7 18 -16 30
-19 28 -74 30 -97 4z"/>
<path d="M1403 1350 c-27 -16 -33 -17 -33 -5 0 8 -9 15 -20 15 -19 0 -20 -7
-20 -160 l0 -160 25 0 c23 0 25 3 25 52 0 40 3 49 12 40 7 -7 29 -12 51 -12
102 0 145 163 60 229 -32 26 -59 26 -100 1z m81 -36 c24 -24 22 -118 -4 -144
-22 -22 -51 -26 -81 -10 -27 15 -28 144 -1 159 26 15 69 13 86 -5z"/>
<path d="M1632 1353 c-34 -18 -38 -40 -6 -35 88 16 91 16 103 -19 6 -18 10
-34 8 -36 -2 -1 -25 -7 -50 -12 -69 -13 -97 -34 -97 -76 0 -24 6 -37 19 -45
28 -15 83 -12 108 5 19 13 22 13 27 0 3 -8 13 -15 22 -15 14 0 16 12 12 100
-3 84 -7 103 -24 120 -28 28 -81 34 -122 13z m106 -149 c4 -30 -30 -56 -70
-52 -27 2 -34 7 -36 30 -3 23 2 29 30 37 48 14 73 9 76 -15z"/>
<path d="M1875 1359 c-71 -41 -52 -115 35 -134 40 -9 54 -28 40 -54 -12 -23
-57 -28 -90 -11 -26 14 -39 -9 -15 -27 25 -17 95 -17 122 2 25 17 37 59 24 82
-5 10 -33 28 -63 42 -29 15 -54 34 -56 43 -5 25 40 41 75 27 31 -11 51 2 29
20 -21 18 -78 23 -101 10z"/>
<path d="M2073 1351 c-25 -16 -33 -28 -33 -49 0 -34 20 -54 78 -77 37 -15 43
-21 40 -44 -2 -21 -9 -27 -35 -29 -18 -2 -41 1 -51 7 -15 8 -23 7 -31 -3 -15
-17 26 -36 79 -36 54 0 82 28 78 78 -3 35 -6 38 -58 59 -39 15 -56 28 -58 42
-4 27 32 41 73 30 34 -10 53 2 31 20 -27 23 -79 23 -113 2z"/>
</g>
</svg>
